<?xml version="1.0" encoding="utf-8"?>
<svg id="master-artboard" viewBox="0 0 24 24" version="1.1" xmlns="http://www.w3.org/2000/svg" x="0px" y="0px" style="enable-background:new 0 0 1400 980;" width="24px" height="24px"><rect id="ee-background" x="0" y="0" width="24" height="24" style="fill: white; fill-opacity: 0; pointer-events: none;" transform="matrix(1, 0, 0, 1, 0, 1)"/><g transform="matrix(0.9999997615814209, 0, 0, 0.9999997615814209, 0.0000034968061299878173, -0.9999998807907104)"><path d="M23.9918 19.9222C24.0828 19.6763 13.6364 11.7885 13.6364 11.7885C12.3286 10.8234 11.6407 10.8082 10.3475 11.7885C10.3475 11.7885 -0.0837344 19.67 0.0040625 19.9125L0.00195312 19.9142C0.00303125 19.9163 0.00476562 19.9178 0.00621875 19.9197C0.0946689 20.1608 0.223351 20.3852 0.386797 20.5833C0.455844 20.6671 0.539047 20.7372 0.619062 20.8101L0.615172 20.8131C0.621547 20.8187 0.630031 20.8214 0.636406 20.827C0.975547 21.1296 1.40323 21.3255 1.87836 21.3814C1.88581 21.3823 1.89181 21.3862 1.89927 21.3871H1.92795C2.00019 21.394 2.06886 21.4113 2.14283 21.4113H21.8641C22.8352 21.4113 23.658 20.8006 23.9848 19.9446C23.9887 19.9382 23.9947 19.9336 23.9982 19.927L23.9918 19.9222Z" fill="#96A9B2"/><path d="M12.0061 10.8833L0.0568848 19.8452V7.14915C0.0568848 5.91165 1.05987 4.90866 2.29737 4.90866H21.7149C22.9524 4.90866 23.9554 5.91165 23.9554 7.14915V19.8452L12.0061 10.8833Z" fill="#B9C5C6"/><path d="M0.196289 6.3701L10.3984 14.3833C11.6861 15.3335 12.3633 15.3485 13.6367 14.3833L23.8227 6.38281C23.646 6.06246 23.3815 5.80938 23.0789 5.60759L23.219 5.49781C22.877 5.18651 22.4399 4.98471 21.9547 4.93259L2.0584 4.93329C1.57455 4.98471 1.13674 5.18721 0.795492 5.49781L0.93457 5.60623C0.635508 5.80521 0.373383 6.05393 0.196289 6.3701Z" fill="#EDECE6"/><path d="M0.193049 6.38692C0.103471 6.62903 10.3889 14.3953 10.3889 14.3953C11.6766 15.3455 12.3538 15.3605 13.6272 14.3953C13.6272 14.3953 23.8976 6.63531 23.8112 6.39653L23.8133 6.39479C23.8122 6.39268 23.8105 6.39132 23.8091 6.3894C23.722 6.152 23.5953 5.93107 23.4344 5.73601C23.3664 5.65356 23.2845 5.58456 23.2057 5.51275L23.2096 5.50979C23.2033 5.50422 23.1949 5.50159 23.1887 5.49601C22.8547 5.19817 22.4336 5.00523 21.9659 4.95015C21.9586 4.94926 21.9526 4.94547 21.9453 4.94457H21.9171C21.846 4.93778 21.7783 4.92072 21.7055 4.92072H2.28799C1.33183 4.92072 0.521736 5.52203 0.200033 6.36489C0.196189 6.37117 0.190283 6.37571 0.186768 6.38214L0.193049 6.38692Z" fill="#DCE2E2"/></g></svg>